<mxfile host="Electron" agent="Mozilla/5.0 (Windows NT 10.0; Win64; x64) AppleWebKit/537.36 (KHTML, like Gecko) draw.io/25.0.2 Chrome/128.0.6613.186 Electron/32.2.5 Safari/537.36" version="25.0.2">
  <diagram name="Page-1" id="4-zGpl47nF6Qx-0LYG0W">
    <mxGraphModel dx="1562" dy="909" grid="1" gridSize="10" guides="1" tooltips="1" connect="1" arrows="1" fold="1" page="1" pageScale="1" pageWidth="850" pageHeight="1100" math="0" shadow="0">
      <root>
        <mxCell id="0" />
        <mxCell id="1" parent="0" />
        <mxCell id="ptZGJS0U7vYTLi7Gu-pg-1" value="" style="ellipse;whiteSpace=wrap;html=1;aspect=fixed;movable=0;resizable=0;rotatable=0;deletable=0;editable=0;locked=1;connectable=0;fillColor=#76608a;fontColor=#ffffff;strokeColor=#432D57;" vertex="1" parent="1">
          <mxGeometry x="28" y="153" width="800" height="800" as="geometry" />
        </mxCell>
        <mxCell id="ptZGJS0U7vYTLi7Gu-pg-4" value="" style="ellipse;whiteSpace=wrap;html=1;aspect=fixed;movable=0;resizable=0;rotatable=0;deletable=0;editable=0;locked=1;connectable=0;fillColor=#0050ef;fontColor=#ffffff;strokeColor=#001DBC;" vertex="1" parent="1">
          <mxGeometry x="100" y="225" width="650" height="650" as="geometry" />
        </mxCell>
        <mxCell id="ptZGJS0U7vYTLi7Gu-pg-5" value="" style="ellipse;whiteSpace=wrap;html=1;aspect=fixed;movable=0;resizable=0;rotatable=0;deletable=0;editable=0;locked=1;connectable=0;fillColor=#6d8764;fontColor=#ffffff;strokeColor=#3A5431;" vertex="1" parent="1">
          <mxGeometry x="175" y="300" width="500" height="500" as="geometry" />
        </mxCell>
        <mxCell id="ptZGJS0U7vYTLi7Gu-pg-6" value="" style="ellipse;whiteSpace=wrap;html=1;aspect=fixed;movable=0;resizable=0;rotatable=0;deletable=0;editable=0;locked=1;connectable=0;fillColor=#647687;strokeColor=#314354;fontColor=#ffffff;" vertex="1" parent="1">
          <mxGeometry x="250" y="375" width="350" height="350" as="geometry" />
        </mxCell>
        <mxCell id="ptZGJS0U7vYTLi7Gu-pg-7" value="&lt;font style=&quot;font-size: 20px;&quot;&gt;&lt;b&gt;Author&lt;/b&gt;&lt;/font&gt;" style="text;strokeColor=none;align=center;fillColor=none;html=1;verticalAlign=middle;whiteSpace=wrap;rounded=0;" vertex="1" parent="1">
          <mxGeometry x="480" y="490" width="60" height="30" as="geometry" />
        </mxCell>
        <mxCell id="ptZGJS0U7vYTLi7Gu-pg-12" value="&lt;font style=&quot;font-size: 20px;&quot;&gt;&lt;b&gt;Notification&lt;/b&gt;&lt;/font&gt;" style="text;strokeColor=none;align=center;fillColor=none;html=1;verticalAlign=middle;whiteSpace=wrap;rounded=0;" vertex="1" parent="1">
          <mxGeometry x="360" y="610" width="130" height="30" as="geometry" />
        </mxCell>
        <mxCell id="ptZGJS0U7vYTLi7Gu-pg-13" value="&lt;span style=&quot;font-size: 20px;&quot;&gt;&lt;b&gt;Cheep&lt;/b&gt;&lt;/span&gt;" style="text;strokeColor=none;align=center;fillColor=none;html=1;verticalAlign=middle;whiteSpace=wrap;rounded=0;" vertex="1" parent="1">
          <mxGeometry x="300" y="490" width="60" height="30" as="geometry" />
        </mxCell>
        <mxCell id="ptZGJS0U7vYTLi7Gu-pg-15" style="edgeStyle=orthogonalEdgeStyle;rounded=0;orthogonalLoop=1;jettySize=auto;html=1;exitX=0.5;exitY=1;exitDx=0;exitDy=0;" edge="1" parent="1" source="ptZGJS0U7vYTLi7Gu-pg-12" target="ptZGJS0U7vYTLi7Gu-pg-12">
          <mxGeometry relative="1" as="geometry" />
        </mxCell>
        <mxCell id="ptZGJS0U7vYTLi7Gu-pg-16" value="&lt;span style=&quot;font-size: 20px;&quot;&gt;&lt;b&gt;ICheepService&lt;/b&gt;&lt;/span&gt;" style="text;strokeColor=none;align=center;fillColor=none;html=1;verticalAlign=middle;whiteSpace=wrap;rounded=0;" vertex="1" parent="1">
          <mxGeometry x="343" y="250" width="165" height="30" as="geometry" />
        </mxCell>
        <mxCell id="ptZGJS0U7vYTLi7Gu-pg-17" value="&lt;span style=&quot;font-size: 20px;&quot;&gt;&lt;b&gt;ICheepRepository&lt;/b&gt;&lt;/span&gt;" style="text;strokeColor=none;align=center;fillColor=none;html=1;verticalAlign=middle;whiteSpace=wrap;rounded=0;" vertex="1" parent="1">
          <mxGeometry x="343" y="330" width="165" height="30" as="geometry" />
        </mxCell>
        <mxCell id="ptZGJS0U7vYTLi7Gu-pg-18" value="&lt;span style=&quot;font-size: 20px;&quot;&gt;&lt;b&gt;INotificationRepository&lt;/b&gt;&lt;/span&gt;" style="text;strokeColor=none;align=center;fillColor=none;html=1;verticalAlign=middle;whiteSpace=wrap;rounded=0;rotation=75;" vertex="1" parent="1">
          <mxGeometry x="114" y="590" width="235" height="30" as="geometry" />
        </mxCell>
        <mxCell id="ptZGJS0U7vYTLi7Gu-pg-19" value="&lt;span style=&quot;font-size: 20px;&quot;&gt;&lt;b&gt;IAuthorRepository&lt;/b&gt;&lt;/span&gt;" style="text;strokeColor=none;align=center;fillColor=none;html=1;verticalAlign=middle;whiteSpace=wrap;rounded=0;rotation=-75;" vertex="1" parent="1">
          <mxGeometry x="540" y="570" width="180" height="30" as="geometry" />
        </mxCell>
        <mxCell id="ptZGJS0U7vYTLi7Gu-pg-20" value="&lt;span style=&quot;font-size: 20px;&quot;&gt;&lt;b&gt;IDbRepository&lt;/b&gt;&lt;/span&gt;" style="text;strokeColor=none;align=center;fillColor=none;html=1;verticalAlign=middle;whiteSpace=wrap;rounded=0;rotation=0;" vertex="1" parent="1">
          <mxGeometry x="349" y="740" width="152" height="30" as="geometry" />
        </mxCell>
        <mxCell id="ptZGJS0U7vYTLi7Gu-pg-22" value="&lt;span style=&quot;font-size: 20px;&quot;&gt;&lt;b&gt;Program&lt;/b&gt;&lt;/span&gt;" style="text;strokeColor=none;align=center;fillColor=none;html=1;verticalAlign=middle;whiteSpace=wrap;rounded=0;" vertex="1" parent="1">
          <mxGeometry x="349" y="180" width="165" height="30" as="geometry" />
        </mxCell>
      </root>
    </mxGraphModel>
  </diagram>
</mxfile>
